<?xml version="1.0" encoding="UTF-8"?>
<svg id="Layer_4" data-name="Layer 4" xmlns="http://www.w3.org/2000/svg" viewBox="0 0 1024 1024">
  <defs>
    <style>
      .cls-1 {
        fill: none;
        stroke: #000;
        stroke-miterlimit: 10;
        stroke-width: 4px;
      }
    </style>
  </defs>
  <path class="cls-1" d="m899.23,827.07h-61.07v-294.47c0-44.58-36.27-80.85-80.85-80.85h-198.51v-116.07c0-16.42-13.36-29.79-29.79-29.79h-4.26v-38.3c0-7.05-5.72-12.77-12.77-12.77s-12.77,5.72-12.77,12.77v38.3h-4.26c-16.42,0-29.79,13.36-29.79,29.79v116.07h-209.43c-44.58,0-80.85,36.27-80.85,80.85v294.47h-50.14c-7.05,0-12.77,5.72-12.77,12.77s5.72,12.77,12.77,12.77h7.39l7.36,25.77c5.42,18.96,25.1,33.81,44.82,33.81h655.32c19.72,0,39.4-14.85,44.82-33.81l7.36-25.77h7.39c7.05,0,12.77-5.72,12.77-12.77s-5.72-12.77-12.77-12.77h0Zm-408.51-491.39c0-2.31,1.95-4.26,4.26-4.26h34.04c2.31,0,4.26,1.95,4.26,4.26v116.07h-42.55v-116.07Zm-234.97,141.6h501.56c30.5,0,55.32,24.82,55.32,55.32v39.15c-23.09,3.1-36.55,14.37-48.6,24.51-12.86,10.82-23.01,19.37-44.93,19.37s-32.07-8.55-44.93-19.37c-14.13-11.89-30.14-25.37-61.37-25.37s-47.24,13.48-61.36,25.37c-12.85,10.82-23.01,19.37-44.92,19.37s-32.07-8.55-44.92-19.37c-14.13-11.89-30.14-25.37-61.37-25.37s-47.24,13.48-61.36,25.37c-7.55,6.36-14.68,12.36-23.92,15.87-4.96,1.88-8.23,6.63-8.23,11.94v87.29c0,7.04-5.73,12.77-12.77,12.77s-12.77-5.73-12.77-12.77v-86.87c.18-5.38-3.07-10.39-8.23-12.35-9.24-3.51-16.37-9.51-23.92-15.87-12.05-10.15-25.51-21.42-48.6-24.51v-39.15c0-30.5,24.82-55.32,55.32-55.32h0Zm-55.32,120.32c13.67,2.68,22.1,9.73,32.15,18.2,6.59,5.55,13.86,11.67,23.06,16.49v79.07c0,21.12,17.18,38.3,38.3,38.3s38.3-17.18,38.3-38.3v-79.07c9.2-4.82,16.48-10.94,23.06-16.49,12.85-10.82,23.01-19.37,44.92-19.37s32.07,8.55,44.92,19.37c14.13,11.89,30.14,25.37,61.37,25.37s47.24-13.48,61.36-25.37c12.85-10.82,23.01-19.37,44.92-19.37s32.07,8.55,44.93,19.37c14.13,11.89,30.14,25.37,61.37,25.37s47.24-13.48,61.37-25.37c10.06-8.46,18.49-15.52,32.16-18.2v229.47H200.44v-229.47h0Zm659.49,273.75c-2.29,8-11.95,15.29-20.27,15.29H184.34c-8.32,0-17.98-7.29-20.27-15.29l-5.36-18.75h706.58l-5.36,18.75Z"/>
  <path class="cls-1" d="m460.94,274.81c3.03,0,6.06-1.07,8.5-3.24,5.26-4.7,5.72-12.77,1.02-18.03-9.11-10.2-14.13-23.34-14.13-36.98,0-29.9,22.64-61.11,55.67-77.54,33.03,16.43,55.67,47.64,55.67,77.54,0,13.64-5.02,26.78-14.13,36.98-4.7,5.26-4.24,13.33,1.02,18.02,5.26,4.69,13.33,4.24,18.02-1.02,13.29-14.89,20.61-34.06,20.61-53.98,0-41.25-31.29-83.74-76.09-103.32-3.26-1.42-6.97-1.42-10.22,0-44.8,19.58-76.09,62.06-76.09,103.32,0,19.93,7.32,39.1,20.61,53.98,2.52,2.83,6.02,4.27,9.53,4.27Z"/>
</svg>