<?xml version="1.0" encoding="UTF-8"?>
<svg id="Layer_1" data-name="Layer 1" xmlns="http://www.w3.org/2000/svg" viewBox="0 0 1024 1024">
  <defs>
    <style>
      .cls-1 {
        fill: #231f20;
        stroke-width: 0px;
      }
    </style>
  </defs>
  <path class="cls-1" d="m400.01,460.2h93.04v178.54c-23.89,18.03-51.55,31.86-82.98,41.49-31.43,9.64-63.08,14.46-94.93,14.46-45.69,0-86.76-9.74-123.22-29.23-36.46-19.49-65.07-46.52-85.81-81.1-20.75-34.58-31.12-73.65-31.12-117.25s10.37-82.67,31.12-117.25,49.56-61.61,86.44-81.1c36.88-19.49,78.37-29.23,124.48-29.23,38.55,0,73.55,6.5,104.99,19.49,31.43,13,57.84,31.86,79.21,56.58l-65.38,60.35c-31.43-33.1-69.37-49.66-113.79-49.66-28.08,0-53.02,5.87-74.81,17.6-21.8,11.74-38.77,28.29-50.92,49.66-12.16,21.38-18.23,45.89-18.23,73.55s6.07,51.55,18.23,72.92c12.15,21.38,29.02,38.03,50.61,49.98,21.58,11.95,46.21,17.92,73.87,17.92,29.33,0,55.73-6.29,79.21-18.86v-128.88Z"/>
  <path class="cls-1" d="m929.34,348.93v281.64c0,62.02-16.14,108.13-48.41,138.31-32.28,30.18-79.43,45.26-141.45,45.26-32.69,0-63.71-3.99-93.04-11.95-29.34-7.97-53.65-19.49-72.92-34.58l38.98-70.41c14.24,11.73,32.27,21.06,54.07,27.98,21.79,6.92,43.58,10.37,65.38,10.37,33.95,0,58.99-7.65,75.12-22.95,16.13-15.3,24.2-38.45,24.2-69.47v-14.46c-25.57,28.08-61.2,42.12-106.87,42.12-31.02,0-59.41-6.81-85.18-20.43-25.78-13.62-46.21-32.79-61.29-57.52-15.09-24.72-22.63-53.22-22.63-85.5s7.54-60.76,22.63-85.5c15.09-24.72,35.52-43.9,61.29-57.52,25.78-13.61,54.16-20.43,85.18-20.43,49.04,0,86.33,16.14,111.9,48.41v-43.38h93.04Zm-121.65,218.46c16.55-15.29,24.83-35.3,24.83-60.04s-8.28-44.73-24.83-60.04c-16.56-15.29-37.83-22.95-63.81-22.95s-47.37,7.65-64.12,22.95c-16.77,15.3-25.15,35.31-25.15,60.04s8.38,44.74,25.15,60.04c16.76,15.3,38.13,22.95,64.12,22.95s47.25-7.64,63.81-22.95Z"/>
</svg>