<?xml version="1.0" encoding="UTF-8"?>
<svg id="Layer_1" data-name="Layer 1" xmlns="http://www.w3.org/2000/svg" viewBox="0 0 1920 1080">
  <defs>
    <style>
      .cls-1, .cls-2 {
        stroke-width: 0px;
      }

      .cls-2 {
        fill: #fff;
      }
    </style>
  </defs>
  <g>
    <path class="cls-2" d="m77,352.5c-79.2,0-153.66-30.84-209.66-86.84-56-56-86.84-130.46-86.84-209.66s30.84-153.66,86.84-209.66S-2.2-240.5,77-240.5s153.66,30.84,209.66,86.84S373.5-23.2,373.5,56s-30.84,153.66-86.84,209.66c-56,56-130.46,86.84-209.66,86.84Z"/>
    <path class="cls-1" d="m77-240c39.96,0,78.72,7.83,115.22,23.26,35.25,14.91,66.9,36.25,94.09,63.44,27.18,27.18,48.53,58.84,63.44,94.09,15.43,36.49,23.26,75.26,23.26,115.22s-7.83,78.72-23.26,115.22c-14.91,35.25-36.25,66.9-63.44,94.09-27.18,27.18-58.84,48.53-94.09,63.44-36.49,15.43-75.26,23.26-115.22,23.26s-78.72-7.83-115.22-23.26c-35.25-14.91-66.9-36.25-94.09-63.44-27.18-27.18-48.53-58.84-63.44-94.09-15.43-36.49-23.26-75.26-23.26-115.22s7.83-78.72,23.26-115.22c14.91-35.25,36.25-66.9,63.44-94.09,27.18-27.18,58.84-48.53,94.09-63.44,36.49-15.43,75.26-23.26,115.22-23.26m0-1c-164.03,0-297,132.97-297,297S-87.03,353,77,353,374,220.03,374,56,241.03-241,77-241h0Z"/>
  </g>
  <g>
    <path class="cls-2" d="m1653,1359.5c-79.2,0-153.66-30.84-209.66-86.84-56-56-86.84-130.46-86.84-209.66s30.84-153.66,86.84-209.66,130.46-86.84,209.66-86.84,153.66,30.84,209.66,86.84,86.84,130.46,86.84,209.66-30.84,153.66-86.84,209.66c-56,56-130.46,86.84-209.66,86.84Z"/>
    <path class="cls-1" d="m1653,767c39.96,0,78.72,7.83,115.22,23.26,35.25,14.91,66.9,36.25,94.09,63.44,27.18,27.18,48.53,58.84,63.44,94.09,15.43,36.49,23.26,75.26,23.26,115.22s-7.83,78.72-23.26,115.22c-14.91,35.25-36.25,66.9-63.44,94.09-27.18,27.18-58.84,48.53-94.09,63.44-36.49,15.43-75.26,23.26-115.22,23.26s-78.72-7.83-115.22-23.26c-35.25-14.91-66.9-36.25-94.09-63.44-27.18-27.18-48.53-58.84-63.44-94.09-15.43-36.49-23.26-75.26-23.26-115.22s7.83-78.72,23.26-115.22c14.91-35.25,36.25-66.9,63.44-94.09,27.18-27.18,58.84-48.53,94.09-63.44,36.49-15.43,75.26-23.26,115.22-23.26m0-1c-164.03,0-297,132.97-297,297s132.97,297,297,297,297-132.97,297-297-132.97-297-297-297h0Z"/>
  </g>
</svg>