
<svg xmlns="http://www.w3.org/2000/svg" version="1.1" xmlns:xlink="http://www.w3.org/1999/xlink" preserveAspectRatio="none" x="0px" y="0px" width="1024px" height="1024px" viewBox="0 0 1024 1024">
<defs>
<path id="Layer0_0_1_STROKES" stroke="#DC3C1F" stroke-width="0.05" stroke-linejoin="miter" stroke-linecap="butt" stroke-miterlimit="11" fill="none" d="
M 349.65 399.7
L 335.45 399.7 335.45 2.85 349.65 2.85 349.65 399.7 Z
M 304.3 399.7
L 290.1 399.7 290.1 2.85 304.3 2.85 304.3 399.7 Z
M 320.75 399.7
L 306.55 399.7 306.55 2.85 320.75 2.85 320.75 399.7 Z
M 275.35 399.7
L 261.2 399.7 261.2 2.85 275.35 2.85 275.35 399.7 Z
M 289.85 399.7
L 275.65 399.7 275.65 2.85 289.85 2.85 289.85 399.7 Z
M 228.25 25.95
L 228.25 31.25 241 31.25 240.95 34.9 240.7 35.8 239.7 37.4 238.35 38.6 237.55 38.95 134.85 70.35 133.6 70.35 132.55 70 131.6 69.35 130.95 68.45 130.5 67.3 130.35 66 130.35 45.3 134.1 44.6 137.7 43.05 140.7 40.95 143.25 38.15 145.2 34.85 145.9 33.1 146.35 31.25 157.7 31.25 157.7 25.95 163 20.65 178.15 20.65 183.5 25.95 202.4 25.95 207.7 20.65 222.95 20.65 228.25 25.95 Z
M 228.25 102.5
L 228.25 107.8 241 107.8 240.95 111.45 240.7 112.3 239.7 113.95 238.95 114.7 238.35 115.1 237.55 115.45 134.85 146.9 133.6 146.85 132.55 146.55 131.6 145.9 130.95 144.95 130.5 143.8 130.35 142.5 130.35 121.85 134.1 121.15 137.6 119.65 139.2 118.65 139.4 118.45 142.05 116.15 144.3 113.1 145.9 109.6 146.35 107.8 157.7 107.8 157.7 102.5 163 97.15 178.15 97.15 183.5 102.5 202.4 102.5 207.7 97.15 222.95 97.15 228.25 102.5 Z
M 242.15 118.2
L 241.45 117.9 240.75 117.8 240 117.9 239.3 118.2 238.85 118.5 238.85 118.55 238.7 118.65 238.25 119.2 238 119.9 237.9 120.65 238 121.35 238 121.4 238.25 122.05 238.55 122.4 238.7 122.65 239.3 123.1 240 123.35 240.75 123.45 241 123.45 241.45 123.35 242.15 123.1 242.75 122.65 243.2 122.05 243.45 121.4 243.45 121.35 243.55 120.65 243.45 119.9 243.2 119.2 242.75 118.65 242.6 118.5 242.15 118.2 Z
M 243.2 130
L 243.45 129.3 243.55 128.55 243.45 127.85 243.2 127.15 242.75 126.55 242.15 126.1 241.45 125.85 241 125.75 240.75 125.75 240 125.85 239.3 126.1 238.7 126.55 238.25 127.15 238 127.85 237.9 128.55 238 129.3 238.25 130 238.4 130.15 238.7 130.55 239.3 131.05 240 131.3 240.75 131.4 241.45 131.3 242.15 131.05 242.75 130.55 243.1 130.15 243.2 130 Z
M 243.45 135.75
L 243.2 135.1 242.75 134.5 242.15 134.05 241.45 133.75 240.75 133.65 240 133.75 239.3 134.05 238.7 134.5 238.25 135.1 238 135.75 237.95 135.95 237.9 136.5 238 137.25 238.25 137.95 238.7 138.5 239.3 138.95 240 139.25 240.75 139.35 241.45 139.25 242.15 138.95 242.75 138.5 243.2 137.95 243.45 137.25 243.55 136.5 243.5 135.95 243.45 135.75 Z
M 247.05 139.75
L 243.3 140.45 239.8 141.95 236.7 144.15 234.1 146.9 232.2 150.2 231 153.8 219.7 153.8 219.7 159.1 214.4 164.4 199.25 164.4 193.9 159.1 175 159.1 169.7 164.4 154.45 164.4 149.15 159.1 149.15 153.8 136.35 153.8 136.35 151 136.45 150.15 136.7 149.25 137.1 148.45 137.65 147.65 138.45 146.9 139.05 146.45 139.8 146.1 154.1 141.75 154.45 141.6 242.55 114.7 243.75 114.7 243.8 114.75 244.85 115.05 245.75 115.7 246.45 116.65 246.9 117.75 246.95 118.5 247.05 119.05 247.05 139.75 Z
M 228.25 179
L 228.25 184.3 241 184.3 240.95 188 240.7 188.85 240.25 189.7 239.05 191.15 238.95 191.2 238.35 191.65 237.55 192 141.15 221.6 140.9 221.65 134.85 223.45 133.65 223.4 132.55 223.05 132.45 223 131.6 222.4 130.95 221.5 130.5 220.35 130.35 219.05 130.35 198.35 132.25 198.1 135.9 197 137.6 196.2 140.7 194 143.25 191.2 145.2 187.95 145.9 186.15 146.35 184.3 157.7 184.3 157.7 179 163 173.7 178.15 173.7 183.5 179 202.4 179 207.7 173.7 222.95 173.7 228.25 179 Z
M 243.45 196.45
L 243.2 195.75 242.75 195.15 242.15 194.7 241.45 194.45 241 194.35 240.75 194.35 240 194.45 239.3 194.7 238.85 195.1 238.7 195.15 238.25 195.75 238 196.45 237.9 197.15 238 197.9 238.25 198.6 238.7 199.15 239.3 199.6 239.7 199.8 240 199.9 240.75 200 241.45 199.9 241.75 199.8 242.15 199.6 242.75 199.15 243.2 198.6 243.45 197.9 243.55 197.15 243.55 196.9 243.45 196.45 Z
M 245.75 192.25
L 246.45 193.15 246.9 194.3 247.05 195.6 247.05 216.3 245.15 216.55 242.7 217.2 239.8 218.45 236.7 220.65 234.5 223 234.15 223.45 234.1 223.45 232.2 226.75 231 230.35 219.7 230.35 219.7 235.65 214.4 240.95 199.25 240.95 193.9 235.65 175 235.65 169.7 240.95 154.45 240.95 149.15 235.65 149.15 230.35 136.35 230.35 136.35 227.5 136.45 226.65 136.7 225.8 137.1 224.95 137.65 224.2 138.45 223.45 139.05 223 139.8 222.65 238.1 192.5 238.35 192.4 242.55 191.2 243.75 191.25 244.85 191.6 245.75 192.25 Z
M 133.85 48.55
L 133.85 48.85 133.95 49.3 134.2 49.95 134.65 50.55 135.25 51 135.95 51.3 136.65 51.4 137.4 51.3 138.1 51 138.65 50.55 139.1 49.95 139.4 49.3 139.4 49.15 139.5 48.55 139.4 47.95 139.4 47.8 139.1 47.15 138.65 46.55 138.1 46.1 137.55 45.85 137.4 45.8 136.65 45.7 135.95 45.8 135.8 45.85 135.25 46.1 134.65 46.55 134.2 47.15 133.95 47.8 133.85 48.55 Z
M 2.8 45.3
L 6.55 44.6 10.15 43.05 11.65 42.1 11.7 42.05 13.15 40.95 15.7 38.15 17.65 34.85 18.8 31.25 30.15 31.25 30.15 25.95 35.45 20.65 50.6 20.65 55.95 25.95 74.8 25.95 80.15 20.65 95.4 20.65 100.7 25.95 100.7 31.25 113.45 31.25 113.4 34.9 113.1 35.8 112.7 36.6 112.15 37.4 111.5 38.05 111.35 38.15 110.8 38.6 110 38.95 69.75 51.3 69.5 51.35 7.3 70.35 6.05 70.35 6 70.3 5.9 70.3 5 70 4.05 69.35 3.4 68.45 2.95 67.3 2.8 66 2.8 45.3 Z
M 8.9 73.6
L 9.15 72.75 9.55 71.9 10.75 70.45 11.5 69.95 12.25 69.6 109.75 39.65 110 39.6 115 38.15 116.2 38.2 117.3 38.55 118.2 39.15 118.9 40.1 119.3 41.25 119.45 42.55 119.45 63.2 117.6 63.45 113.95 64.55 110.85 66.25 110.65 66.4 107.75 68.9 106.6 70.35 106.55 70.4 105.5 71.95 103.95 75.45 103.45 77.25 92.15 77.25 92.15 82.6 86.85 87.9 71.65 87.9 66.35 82.6 47.45 82.6 42.15 87.9 26.85 87.9 21.55 82.6 21.55 77.25 8.8 77.25 8.8 74.45 8.9 73.6 Z
M 115.65 42.7
L 115.15 42.1 114.6 41.65 113.9 41.35 113.15 41.25 112.45 41.35 111.75 41.65 111.15 42.1 110.7 42.7 110.45 43.35 110.35 44.1 110.45 44.85 110.7 45.5 111 45.85 111.15 46.1 111.75 46.55 112.45 46.85 113.15 46.95 113.9 46.85 114.6 46.55 115.15 46.1 115.65 45.5 115.9 44.85 116 44.1 115.9 43.35 115.65 42.7 Z
M 110.45 51.3
L 110.4 51.55 110.35 52.05 110.45 52.75 110.7 53.45 111.15 54.05 111.75 54.5 112.45 54.75 113.15 54.85 113.45 54.85 114.2 54.65 114.6 54.5 115.15 54.05 115.65 53.45 115.9 52.75 116 52.05 115.9 51.3 115.65 50.6 115.15 50.05 114.6 49.6 113.9 49.3 113.15 49.2 112.45 49.3 111.75 49.6 111.15 50.05 110.7 50.6 110.45 51.3 Z
M 112.45 57.25
L 111.75 57.5 111.7 57.55 111.15 57.95 110.7 58.55 110.45 59.25 110.35 59.95 110.4 60.45 110.45 60.7 110.7 61.4 111.15 62 111.75 62.45 112.45 62.7 113.15 62.8 113.9 62.7 114.6 62.45 115.15 62 115.65 61.4 115.9 60.7 115.95 60.45 116 59.95 115.9 59.25 115.65 58.55 115.15 57.95 114.65 57.55 114.6 57.5 113.9 57.25 113.15 57.15 112.45 57.25 Z
M 138.1 54.05
L 137.4 53.75 136.65 53.65 135.95 53.75 135.25 54.05 134.65 54.5 134.5 54.65 134.2 55.05 133.95 55.75 133.85 56.5 133.95 57.2 134.05 57.55 134.2 57.9 134.65 58.5 135.25 58.95 135.95 59.2 136.65 59.3 137.4 59.2 138.1 58.95 138.65 58.5 139.1 57.9 139.4 57.2 139.4 57.05 139.5 56.5 139.4 55.9 139.4 55.75 139.1 55.05 138.8 54.65 138.65 54.5 138.1 54.05 Z
M 138.65 62.4
L 138.1 61.95 137.4 61.7 136.65 61.6 135.95 61.7 135.25 61.95 134.65 62.4 134.2 63 134.05 63.35 133.95 63.7 133.85 64.4 133.95 65.15 134.2 65.85 134.55 66.25 134.65 66.4 135.25 66.85 135.95 67.15 136.65 67.25 137.4 67.15 138.1 66.85 138.65 66.4 138.8 66.25 139.1 65.85 139.4 65.15 139.4 65 139.5 64.4 139.4 63.85 139.4 63.7 139.1 63 138.65 62.4 Z
M 6.25 48.55
L 6.35 49.3 6.65 49.95 7.1 50.55 7.7 51 8.35 51.3 9.05 51.35 9.1 51.4 9.85 51.3 10.5 51 11.1 50.55 11.55 49.95 11.85 49.3 11.95 48.55 11.85 47.8 11.55 47.15 11.1 46.55 10.5 46.1 10 45.85 9.85 45.8 9.1 45.7 9.05 45.7 8.35 45.8 7.7 46.1 7.1 46.55 6.65 47.15 6.35 47.8 6.25 48.55 Z
M 6.95 54.65
L 6.65 55.05 6.35 55.75 6.25 56.5 6.35 57.2 6.65 57.9 7.1 58.5 7.7 58.95 8.35 59.2 9.05 59.3 9.1 59.3 9.85 59.2 10.5 58.95 11.1 58.5 11.55 57.9 11.85 57.2 11.95 56.5 11.85 55.75 11.55 55.05 11.25 54.65 11.1 54.5 10.5 54.05 9.85 53.75 9.1 53.65 9.05 53.65 8.35 53.75 7.7 54.05 7.1 54.5 6.95 54.65 Z
M 7.1 66.4
L 7.7 66.85 8.35 67.15 9.05 67.25 9.1 67.25 9.85 67.15 10.5 66.85 11.1 66.4 11.25 66.25 11.55 65.85 11.85 65.15 11.95 64.4 11.85 63.7 11.55 63 11.1 62.4 10.5 61.95 9.85 61.7 9.1 61.6 9.05 61.6 8.35 61.7 7.7 61.95 7.1 62.4 6.65 63 6.35 63.7 6.25 64.4 6.35 65.15 6.65 65.85 7 66.25 7.1 66.4 Z
M 2.8 121.85
L 6.55 121.15 8.35 120.5 11.65 118.65 11.8 118.5 14.5 116.15 16.75 113.1 17.65 111.4 18.8 107.8 30.15 107.8 30.15 102.5 35.45 97.15 50.6 97.15 55.95 102.5 74.8 102.5 80.15 97.15 95.4 97.15 100.7 102.5 100.7 107.8 113.45 107.8 113.4 111.45 112.7 113.15 112.15 113.95 111.5 114.6 110.8 115.1 110 115.45 69.75 127.85 69.5 127.9 7.3 146.9 6 146.85 5.9 146.8 5 146.55 4.05 145.9 3.4 144.95 2.95 143.8 2.8 142.5 2.8 121.85 Z
M 7.7 122.65
L 7.1 123.1 6.65 123.65 6.4 124.3 6.35 124.35 6.25 125.1 6.35 125.8 6.65 126.5 7.1 127.1 7.7 127.55 8.35 127.8 9.05 127.9 9.1 127.9 9.85 127.8 10.5 127.55 11.1 127.1 11.55 126.5 11.85 125.8 11.95 125.1 11.85 124.35 11.55 123.65 11.1 123.1 10.5 122.65 10 122.4 9.85 122.35 9.1 122.25 9.05 122.25 8.35 122.35 7.7 122.65 Z
M 6.65 131.6
L 6.35 132.3 6.25 133 6.25 133.05 6.35 133.75 6.65 134.45 7.1 135 7.7 135.45 8.35 135.75 9.05 135.85 9.1 135.85 9.85 135.75 10.5 135.45 11.1 135 11.55 134.45 11.85 133.75 11.95 133 11.85 132.3 11.55 131.6 11.1 131 10.5 130.55 9.85 130.3 9.1 130.2 9.05 130.2 8.35 130.3 7.7 130.55 7.1 131 6.65 131.6 Z
M 6.65 142.35
L 7.1 142.95 7.7 143.4 8.35 143.7 9.05 143.8 9.1 143.8 9.85 143.7 10.5 143.4 11.1 142.95 11.55 142.35 11.7 142.05 11.8 141.75 11.85 141.7 11.95 140.95 11.85 140.2 11.55 139.55 11.1 138.95 10.5 138.5 9.85 138.2 9.1 138.1 9.05 138.15 8.35 138.2 7.7 138.5 7.1 138.95 6.65 139.55 6.35 140.2 6.25 140.95 6.35 141.7 6.4 141.75 6.65 142.35 Z
M 8.9 150.15
L 9.15 149.25 9.55 148.45 10.1 147.65 10.75 147 11.5 146.45 11.7 146.4 12.25 146.1 113.45 115.05 115 114.7 116.2 114.7 117.3 115.05 118.2 115.7 118.9 116.65 119.3 117.75 119.45 119.05 119.45 139.75 115.75 140.45 112.25 141.95 110.65 142.95 107.75 145.45 106.55 146.9 105.7 148.25 105.5 148.5 104.65 150.2 103.45 153.8 92.15 153.8 92.15 159.1 86.85 164.4 71.65 164.4 66.35 159.1 47.45 159.1 42.15 164.4 26.85 164.4 21.55 159.1 21.55 153.8 8.8 153.8 8.8 151 8.9 150.15 Z
M 2.8 198.35
L 4.7 198.1 8.35 197 10.05 196.2 11.65 195.15 11.7 195.15 14.5 192.65 15.7 191.2 17.65 187.95 18.8 184.3 30.15 184.3 30.15 179 35.45 173.7 50.6 173.7 55.95 179 74.8 179 80.15 173.7 95.4 173.7 100.7 179 100.7 184.3 113.45 184.3 113.4 188 112.7 189.7 111.5 191.15 111.35 191.2 110.8 191.65 110.4 191.85 69.75 204.35 69.5 204.45 13.8 221.55 13.35 221.65 9.05 223 9 223 8.55 223.15 7.3 223.45 6.05 223.4 5 223.05 4.9 223 4.05 222.4 3.4 221.5 2.95 220.35 2.8 219.05 2.8 198.35 Z
M 139.4 124.3
L 139.1 123.65 138.65 123.1 138.1 122.65 137.55 122.4 137.4 122.35 136.65 122.25 135.95 122.35 135.8 122.4 135.25 122.65 134.65 123.1 134.2 123.65 133.95 124.3 133.95 124.35 133.85 125.1 133.95 125.8 134.2 126.5 134.65 127.1 135.25 127.55 135.95 127.8 136.65 127.9 137.4 127.8 138.1 127.55 138.65 127.1 139.1 126.5 139.4 125.8 139.4 125.65 139.5 125.1 139.4 124.5 139.4 124.3 Z
M 138.1 130.55
L 137.4 130.3 136.65 130.2 135.95 130.3 135.25 130.55 134.65 131 134.2 131.6 133.95 132.3 133.85 133 133.85 133.05 133.95 133.75 134.2 134.45 134.65 135 135.25 135.45 135.95 135.75 136.65 135.85 137.4 135.75 138.1 135.45 138.65 135 139.1 134.45 139.4 133.75 139.4 133.6 139.5 133 139.4 132.45 139.4 132.3 139.1 131.6 138.65 131 138.1 130.55 Z
M 138.65 138.95
L 138.1 138.5 137.4 138.2 136.65 138.1 135.95 138.2 135.25 138.5 134.65 138.95 134.2 139.55 133.95 140.2 133.85 140.95 133.95 141.7 133.95 141.75 134.2 142.35 134.65 142.95 135.25 143.4 135.95 143.7 136.65 143.8 137.4 143.7 138.1 143.4 138.65 142.95 139.1 142.35 139.4 141.75 139.4 141.55 139.5 140.95 139.4 140.35 139.4 140.2 139.1 139.55 138.65 138.95 Z
M 114.6 118.2
L 113.9 117.9 113.15 117.8 112.45 117.9 111.75 118.2 111.3 118.5 111.3 118.55 111.15 118.65 110.7 119.2 110.45 119.9 110.4 120.15 110.35 120.65 110.45 121.35 110.45 121.4 110.7 122.05 111 122.4 111.15 122.65 111.75 123.1 112.45 123.35 113.15 123.45 113.45 123.45 113.9 123.35 114.6 123.1 115.15 122.65 115.65 122.05 115.9 121.4 115.9 121.35 116 120.65 115.9 119.9 115.65 119.2 115.15 118.65 115.05 118.5 114.6 118.2 Z
M 110.7 127.2
L 110.45 127.85 110.35 128.55 110.4 129.05 110.45 129.3 110.7 130 110.8 130.15 111.15 130.55 111.75 131.05 112.45 131.3 113.15 131.4 113.9 131.3 114.6 131.05 115.65 130 115.9 129.3 116 128.55 115.9 127.85 115.65 127.2 115.65 127.15 115.15 126.55 114.6 126.1 113.9 125.85 113.45 125.75 113.15 125.75 112.45 125.85 111.75 126.1 111.15 126.55 110.7 127.15 110.7 127.2 Z
M 112.45 133.75
L 111.75 134.05 111.15 134.5 110.7 135.1 110.45 135.75 110.4 135.95 110.4 136.05 110.35 136.5 110.45 137.25 110.7 137.95 111.15 138.5 111.75 138.95 112.45 139.25 113.15 139.35 113.9 139.25 114.6 138.95 114.75 138.85 115.15 138.5 115.65 137.95 115.9 137.25 116 136.5 115.95 135.95 115.9 135.75 115.65 135.1 115.15 134.5 114.6 134.05 113.9 133.75 113.15 133.65 112.45 133.75 Z
M 8.9 226.65
L 9.15 225.8 9.55 224.95 10.1 224.2 10.75 223.55 11.5 223 12.25 222.65 109.75 192.75 110 192.65 110.4 192.55 110.75 192.4 115 191.2 116.2 191.25 117.3 191.6 118.2 192.25 118.9 193.15 119.3 194.3 119.45 195.6 119.45 216.3 117.6 216.55 115.15 217.2 112.25 218.45 110.65 219.5 107.75 222 106.6 223.45 106.55 223.45 104.65 226.75 103.45 230.35 92.15 230.35 92.15 235.65 86.85 240.95 71.65 240.95 66.35 235.65 47.45 235.65 42.15 240.95 26.85 240.95 21.55 235.65 21.55 230.35 8.8 230.35 8.8 227.5 8.9 226.65 Z
M 115.9 196.45
L 115.65 195.75 115.15 195.15 114.6 194.7 113.9 194.45 113.45 194.35 113.15 194.35 112.45 194.45 111.75 194.7 111.3 195.1 111.15 195.15 110.7 195.75 110.45 196.45 110.35 197.15 110.4 197.65 110.45 197.9 110.7 198.6 111.15 199.15 111.75 199.6 112.15 199.8 112.45 199.9 113.15 200 113.9 199.9 114.2 199.8 114.6 199.6 115.15 199.15 115.65 198.6 115.9 197.9 116 197.15 115.9 196.45 Z
M 138.65 199.6
L 138.1 199.15 137.4 198.9 136.65 198.8 135.95 198.9 135.25 199.15 134.65 199.6 134.2 200.2 133.95 200.9 133.85 201.6 133.95 202.35 134.05 202.7 134.2 203.05 134.65 203.6 135.25 204.05 135.95 204.35 136.65 204.45 137.4 204.35 138.1 204.05 138.65 203.6 139.1 203.05 139.4 202.35 139.4 202.2 139.5 201.6 139.4 201.05 139.4 200.9 139.1 200.2 138.65 199.6 Z
M 138.1 207.1
L 137.4 206.8 136.65 206.7 135.95 206.8 135.25 207.1 134.65 207.55 134.2 208.15 133.95 208.8 133.85 209.55 133.95 210.3 134.2 210.95 134.65 211.55 135.25 212 135.95 212.3 136.65 212.4 137.4 212.3 138.1 212 138.65 211.55 138.8 211.4 139.1 210.95 139.4 210.3 139.4 210.15 139.5 209.55 139.4 208.95 139.4 208.8 139.1 208.15 138.65 207.55 138.1 207.1 Z
M 138.65 215.5
L 138.1 215.05 137.4 214.75 136.65 214.65 135.95 214.75 135.25 215.05 134.65 215.5 134.2 216.05 133.95 216.75 133.85 217.2 133.85 217.5 133.95 218.2 134.2 218.9 134.65 219.5 135.25 219.95 135.95 220.25 136.65 220.35 137.4 220.25 138.1 219.95 138.65 219.5 139.1 218.9 139.4 218.2 139.4 218.1 139.5 217.5 139.4 216.9 139.4 216.75 139.1 216.05 138.65 215.5 Z
M 115.15 207.1
L 115.65 206.5 115.9 205.85 115.95 205.6 116 205.1 115.9 204.35 115.65 203.7 115.15 203.1 114.65 202.7 114.6 202.65 113.9 202.35 113.15 202.25 112.45 202.35 111.75 202.65 111.7 202.7 111.15 203.1 110.7 203.7 110.45 204.35 110.35 205.1 110.4 205.55 110.4 205.6 110.45 205.85 110.7 206.5 111.15 207.1 111.75 207.55 112.45 207.85 113.15 207.95 113.9 207.85 114.6 207.55 115.15 207.1 Z
M 112.45 210.3
L 111.75 210.6 111.15 211.05 110.7 211.65 110.45 212.3 110.35 213.05 110.45 213.8 110.7 214.45 111.15 215.05 111.75 215.5 112.45 215.8 113.15 215.9 113.9 215.8 114.6 215.5 115.15 215.05 115.65 214.45 115.9 213.8 116 213.05 115.9 212.3 115.65 211.65 115.15 211.05 114.6 210.6 113.9 210.3 113.15 210.2 112.45 210.3 Z
M 8.9 303.2
L 9.15 302.35 9.55 301.5 10.75 300.05 11.5 299.55 12.25 299.2 108.9 269.55 109.15 269.45 113.45 268.15 113.7 268.05 115 267.75 116.2 267.8 117.3 268.15 118.2 268.8 118.9 269.7 119.3 270.85 119.45 272.15 119.45 292.85 116.2 293.4 113.45 294.4 110.65 296 107.75 298.55 106.6 299.95 106.55 300 104.65 303.25 103.45 306.9 92.15 306.9 92.15 312.2 86.85 317.5 71.65 317.5 66.35 312.2 47.45 312.2 42.15 317.5 26.85 317.5 21.55 312.2 21.55 306.9 8.8 306.9 8.8 304.05 8.9 303.2 Z
M 2.8 274.9
L 4.7 274.65 8.35 273.55 11.65 271.7 11.7 271.65 13.15 270.55 15.7 267.75 17.65 264.45 18.8 260.85 30.15 260.85 30.15 255.55 35.45 250.25 50.6 250.25 55.95 255.55 74.8 255.55 80.15 250.25 95.4 250.25 100.7 255.55 100.7 260.85 113.45 260.85 113.4 264.55 112.7 266.25 112.15 267 111.5 267.65 111.35 267.75 110.8 268.2 110 268.55 69.75 280.9 69.5 281 16.7 297.2 16.25 297.3 12.55 298.45 12.3 298.55 8.55 299.7 7.3 299.95 6.05 299.95 5 299.6 4.05 298.95 3.4 298.05 2.95 296.9 2.8 295.6 2.8 274.9 Z
M 115.65 272.3
L 115.15 271.7 114.6 271.25 113.9 270.95 113.15 270.85 112.45 270.95 111.75 271.25 111.15 271.7 110.7 272.3 110.7 272.35 110.45 272.95 110.35 273.7 110.45 274.45 110.7 275.1 110.8 275.25 111 275.45 111.15 275.7 111.75 276.15 112.45 276.45 113.15 276.55 113.9 276.45 114.6 276.15 115.15 275.7 115.5 275.25 115.65 275.1 115.9 274.45 116 273.7 115.9 272.95 115.65 272.35 115.65 272.3 Z
M 110.7 280.2
L 110.4 281.05 110.4 281.2 110.35 281.65 110.45 282.4 110.7 283.05 111.15 283.65 111.6 283.95 111.75 284.1 112.45 284.4 113.15 284.5 113.9 284.4 114.6 284.1 114.75 283.95 115.15 283.65 115.65 283.05 115.9 282.4 116 281.65 115.95 281.05 115.65 280.2 115.15 279.65 114.6 279.2 113.9 278.9 113.15 278.8 112.45 278.9 111.75 279.2 111.15 279.65 110.7 280.2 Z
M 112.45 286.85
L 112.35 286.85 111.75 287.1 111.15 287.55 110.7 288.15 110.45 288.85 110.4 289.1 110.35 289.6 110.45 290.3 110.7 291 111.15 291.6 111.75 292.05 112.45 292.3 113.15 292.4 113.9 292.3 114.6 292.05 115.15 291.6 115.65 291 115.9 290.3 116 289.75 116 289.6 115.9 288.85 115.65 288.15 115.15 287.55 114.6 287.1 114 286.85 113.9 286.85 113.15 286.75 112.45 286.85 Z
M 228.25 255.55
L 228.25 260.85 241 260.85 240.95 264.55 240.7 265.4 240.25 266.25 239.7 267 238.95 267.75 238.35 268.2 237.55 268.55 141.15 298.15 140.9 298.2 139.85 298.55 139.4 298.65 136.1 299.7 134.85 299.95 133.6 299.95 132.55 299.6 131.6 298.95 130.95 298.05 130.5 296.9 130.35 295.6 130.35 274.9 134.1 274.2 137.6 272.7 140.7 270.55 143.25 267.75 145.2 264.45 145.9 262.7 146.35 260.85 157.7 260.85 157.7 255.55 163 250.25 178.15 250.25 183.5 255.55 202.4 255.55 207.7 250.25 222.95 250.25 228.25 255.55 Z
M 139.4 277.4
L 139.1 276.75 138.65 276.15 138.1 275.7 137.55 275.45 137.4 275.4 136.65 275.3 135.95 275.4 135.8 275.45 135.25 275.7 134.65 276.15 134.2 276.75 133.95 277.4 133.85 278.15 133.95 278.9 134.2 279.55 134.65 280.15 135.25 280.6 135.95 280.9 136.65 281 137.4 280.9 138.1 280.6 138.65 280.15 139.1 279.55 139.4 278.9 139.4 278.75 139.5 278.15 139.4 277.55 139.4 277.4 Z
M 134.65 284.1
L 134.2 284.65 133.95 285.35 133.85 286.1 133.95 286.8 133.95 286.85 134.2 287.5 134.65 288.1 135.25 288.55 135.95 288.85 136.65 288.9 137.4 288.85 138.1 288.55 138.65 288.1 139.1 287.5 139.4 286.85 139.4 286.7 139.5 286.1 139.4 285.5 139.4 285.35 139.1 284.65 138.65 284.1 138.1 283.65 137.4 283.35 136.65 283.25 135.95 283.35 135.25 283.65 134.65 284.1 Z
M 138.65 292
L 138.1 291.55 137.4 291.3 136.65 291.2 135.95 291.3 135.25 291.55 134.65 292 134.2 292.6 134.2 292.7 133.95 293.3 133.85 294.05 133.95 294.75 134.2 295.45 134.65 296.05 135.25 296.5 135.95 296.75 136.65 296.85 137.4 296.75 138.1 296.5 138.65 296.05 139.1 295.45 139.4 294.75 139.4 294.6 139.5 294.05 139.4 293.45 139.4 293.3 139.1 292.6 138.65 292 Z
M 7.7 199.15
L 7.1 199.6 6.65 200.2 6.35 200.9 6.25 201.6 6.35 202.35 6.65 203.05 7.1 203.6 7.7 204.05 8.35 204.35 9.05 204.45 9.1 204.45 9.85 204.35 10.5 204.05 11.1 203.6 11.55 203.05 11.85 202.35 11.95 201.6 11.85 200.9 11.55 200.2 11.1 199.6 10.5 199.15 9.85 198.9 9.1 198.8 9.05 198.8 8.35 198.9 8.25 198.95 7.7 199.15 Z
M 6.65 208.15
L 6.35 208.8 6.25 209.55 6.35 210.3 6.65 210.95 7.1 211.55 7.7 212 8.35 212.3 9.05 212.4 9.1 212.4 9.85 212.3 10.5 212 11.1 211.55 11.25 211.4 11.55 210.95 11.85 210.3 11.95 209.55 11.85 208.8 11.55 208.15 11.1 207.55 10.5 207.1 9.85 206.8 9.1 206.7 9.05 206.75 8.35 206.8 7.7 207.1 7.1 207.55 6.65 208.15 Z
M 6.25 217.5
L 6.35 218.2 6.65 218.9 7.1 219.5 7.7 219.95 8.35 220.25 9.05 220.3 9.1 220.35 9.85 220.25 10.5 219.95 11.1 219.5 11.55 218.9 11.85 218.2 11.95 217.5 11.85 216.75 11.55 216.05 11.1 215.5 10.5 215.05 9.85 214.75 9.1 214.65 9.05 214.65 8.35 214.75 7.7 215.05 7.1 215.5 6.65 216.05 6.35 216.75 6.25 217.5 Z
M 6.25 278.15
L 6.35 278.9 6.65 279.55 7.1 280.15 7.7 280.6 8.35 280.9 9.05 281 9.1 281 9.85 280.9 10.5 280.6 11.1 280.15 11.55 279.55 11.85 278.9 11.95 278.15 11.85 277.4 11.55 276.75 11.1 276.15 10.5 275.7 10 275.45 9.85 275.4 9.1 275.3 9.05 275.35 8.35 275.4 7.7 275.7 7.1 276.15 6.65 276.75 6.35 277.4 6.25 278.15 Z
M 6.65 284.65
L 6.35 285.35 6.25 286.1 6.35 286.8 6.4 286.85 6.65 287.5 7.1 288.1 7.7 288.55 8.35 288.85 9.1 288.9 9.85 288.85 10.5 288.55 11.1 288.1 11.55 287.5 11.85 286.8 11.95 286.1 11.85 285.35 11.55 284.65 11.1 284.1 10.5 283.65 9.85 283.35 9.1 283.25 9.05 283.25 8.35 283.35 7.7 283.65 7.1 284.1 6.65 284.65 Z
M 6.35 293.3
L 6.25 294.05 6.35 294.75 6.65 295.45 7.1 296.05 7.7 296.5 8.35 296.75 9.05 296.85 9.1 296.85 9.85 296.75 10.5 296.5 11.1 296.05 11.55 295.45 11.85 294.75 11.95 294.05 11.85 293.3 11.55 292.6 11.1 292 10.5 291.55 9.85 291.3 9.1 291.2 9.05 291.2 8.35 291.3 7.7 291.55 7.1 292 6.65 292.6 6.35 293.3 Z
M 2.8 351.45
L 6.55 350.75 8.35 350.1 11.65 348.25 14.5 345.75 16.75 342.7 17.65 341 18.8 337.4 30.15 337.4 30.15 332.1 35.45 326.8 50.6 326.8 55.95 332.1 74.8 332.1 80.15 326.8 95.4 326.8 100.7 332.1 100.7 337.4 113.45 337.4 113.4 341.05 113.1 341.95 112.7 342.75 112.15 343.55 111.5 344.2 110.8 344.7 110 345.1 69.75 357.45 69.5 357.5 7.3 376.5 6.05 376.5 5 376.15 4.05 375.5 3.4 374.55 2.95 373.45 2.8 372.1 2.8 351.45 Z
M 6.35 355.4
L 6.65 356.1 7.1 356.7 7.7 357.15 8.35 357.45 9.1 357.5 9.85 357.45 10.5 357.15 11.1 356.7 11.25 356.55 11.55 356.1 11.85 355.4 11.95 354.7 11.85 353.95 11.55 353.25 11.1 352.7 10.5 352.25 9.85 351.95 9.1 351.85 9.05 351.85 8.35 351.95 7.7 352.25 7.1 352.7 6.65 353.25 6.35 353.95 6.25 354.7 6.35 355.4 Z
M 6.65 361.2
L 6.35 361.9 6.25 362.6 6.35 363.35 6.65 364.05 7.1 364.65 7.7 365.1 8.35 365.35 9.05 365.45 9.1 365.45 9.85 365.35 10.5 365.1 11.1 364.65 11.55 364.05 11.85 363.35 11.95 362.6 11.85 361.9 11.55 361.2 11.1 360.6 10.5 360.15 9.85 359.9 9.1 359.8 9.05 359.8 8.35 359.9 7.7 360.15 7.1 360.6 6.65 361.2 Z
M 7.1 368.55
L 6.65 369.15 6.35 369.85 6.25 370.55 6.35 371.05 6.35 371.3 6.65 372 7.1 372.55 7.7 373 8.35 373.3 9.05 373.4 9.1 373.4 9.85 373.3 10.5 373 11.1 372.55 11.55 372 11.85 371.3 11.95 370.55 11.85 369.85 11.55 369.15 11.1 368.55 10.55 368.15 10.5 368.1 9.85 367.8 9.1 367.75 8.35 367.8 7.7 368.1 7.65 368.15 7.1 368.55 Z
M 8.9 379.75
L 9.15 378.9 9.55 378.05 10.1 377.25 10.75 376.6 12.25 375.7 109.75 345.8 110 345.75 115 344.3 116.2 344.3 117.3 344.65 118.2 345.3 118.9 346.25 119.3 347.35 119.45 348.7 119.45 369.35 115.75 370.05 112.25 371.55 110.65 372.55 107.75 375.05 106.6 376.5 106.55 376.55 105.5 378.1 103.95 381.6 103.45 383.4 92.15 383.4 92.15 388.7 86.85 394 71.65 394 66.35 388.7 47.45 388.7 42.15 394 26.85 394 21.55 388.7 21.55 383.4 8.8 383.4 8.8 380.6 8.9 379.75 Z
M 245.75 268.8
L 246.45 269.7 246.9 270.85 247.05 272.15 247.05 292.85 245.15 293.1 241.5 294.2 239.8 295 236.7 297.2 234.1 300 232.3 303.05 232.2 303.25 231 306.9 219.7 306.9 219.7 312.2 214.4 317.5 199.25 317.5 193.9 312.2 175 312.2 169.7 317.5 154.45 317.5 149.15 312.2 149.15 306.9 136.35 306.9 136.35 304.05 136.45 303.2 136.7 302.35 137.1 301.5 137.65 300.75 138.45 299.95 139.4 299.35 236.05 269.65 236.5 269.55 236.7 269.45 241 268.15 241.25 268.05 242.55 267.75 243.75 267.8 244.85 268.15 245.75 268.8 Z
M 222.95 326.8
L 228.25 332.1 228.25 337.4 241 337.4 240.95 341.05 240.7 341.95 239.7 343.55 238.95 344.3 238.1 344.85 237.55 345.1 136.35 376.15 134.85 376.5 133.65 376.5 132.55 376.15 131.6 375.5 130.95 374.55 130.5 373.45 130.35 372.1 130.35 351.45 134.1 350.75 135.9 350.1 139.2 348.25 139.4 348.1 142.05 345.75 144.3 342.7 145.9 339.2 146.35 337.4 157.7 337.4 157.7 332.1 163 326.8 178.15 326.8 183.5 332.1 202.4 332.1 207.7 326.8 222.95 326.8 Z
M 116 350.25
L 115.9 349.5 115.65 348.8 115.15 348.25 114.6 347.8 113.9 347.5 113.15 347.4 112.45 347.5 111.75 347.8 111.15 348.25 110.7 348.8 110.45 349.5 110.35 350.25 110.4 350.7 110.4 350.75 110.45 350.95 110.45 351 110.7 351.65 111.15 352.25 111.75 352.7 112.45 353 113.45 353.05 113.9 353 114.6 352.7 115.15 352.25 115.65 351.65 115.9 350.95 115.95 350.75 116 350.25 Z
M 115.15 356.15
L 114.6 355.7 113.9 355.45 113.15 355.35 112.45 355.45 111.75 355.7 111.15 356.15 110.9 356.55 110.7 356.75 110.45 357.45 110.4 357.7 110.35 358.2 110.45 358.9 110.7 359.6 111.15 360.2 111.75 360.65 112.45 360.9 113.15 361 113.9 360.9 114.6 360.65 115.15 360.2 115.65 359.6 115.9 358.9 116 358.2 115.9 357.45 115.65 356.75 115.45 356.55 115.15 356.15 Z
M 115.65 364.7
L 115.15 364.1 114.6 363.65 113.9 363.4 113.45 363.3 113.15 363.3 112.45 363.4 111.75 363.65 111.15 364.1 110.7 364.7 110.45 365.4 110.35 366.1 110.4 366.6 110.45 366.85 110.7 367.55 111.15 368.1 111.2 368.15 111.75 368.55 112.45 368.85 113.15 368.95 113.9 368.85 114.6 368.55 115.15 368.15 115.15 368.1 115.65 367.55 115.9 366.85 116 366.1 115.9 365.4 115.65 364.7 Z
M 139.1 356.1
L 139.4 355.4 139.4 355.25 139.5 354.7 139.4 354.1 139.4 353.95 139.1 353.25 138.65 352.7 138.1 352.25 137.4 351.95 136.65 351.85 135.95 351.95 135.25 352.25 134.65 352.7 134.2 353.25 133.95 353.95 133.85 354.7 133.95 355.4 134.2 356.1 134.65 356.7 135.25 357.15 135.95 357.45 136.65 357.5 137.4 357.45 138.1 357.15 138.65 356.7 138.8 356.55 139.1 356.1 Z
M 138.1 360.15
L 137.4 359.9 136.65 359.8 135.95 359.9 135.25 360.15 134.65 360.6 134.2 361.2 133.95 361.9 133.85 362.35 133.85 362.6 133.95 363.35 134.2 364.05 134.65 364.65 135.25 365.1 135.95 365.35 136.65 365.45 137.4 365.35 138.1 365.1 138.65 364.65 139.1 364.05 139.4 363.35 139.4 363.2 139.5 362.6 139.4 362.05 139.4 361.9 139.1 361.2 138.65 360.6 138.1 360.15 Z
M 138.65 368.55
L 138.15 368.15 138.1 368.1 137.4 367.8 136.65 367.75 135.95 367.8 135.25 368.1 135.2 368.15 134.65 368.55 134.2 369.15 133.95 369.85 133.85 370.55 133.9 371.05 133.95 371.3 134.2 372 134.65 372.55 135.25 373 135.95 373.3 136.65 373.4 137.4 373.3 138.1 373 138.65 372.55 139.1 372 139.4 371.3 139.4 371.15 139.5 370.55 139.4 369.95 139.4 369.85 139.1 369.15 138.65 368.55 Z
M 169.7 394
L 154.45 394 149.15 388.7 149.15 383.4 136.35 383.4 136.35 380.6 136.45 379.75 136.7 378.9 137.1 378.05 137.65 377.25 138.45 376.5 139.8 375.7 237.3 345.8 237.55 345.75 238.1 345.55 238.35 345.5 242.55 344.3 243.75 344.3 243.8 344.35 243.9 344.35 244.85 344.65 245.75 345.3 246.45 346.25 246.9 347.35 247.05 348.7 247.05 369.35 243.3 370.05 239.8 371.55 236.45 373.95 234.1 376.55 233.05 378.1 232.2 379.8 231 383.4 219.7 383.4 219.7 388.7 214.4 394 199.25 394 193.9 388.7 175 388.7 169.7 394 Z
M 243.55 205.1
L 243.45 204.35 243.2 203.7 242.75 203.1 242.15 202.65 241.45 202.35 240.75 202.25 240 202.35 239.3 202.65 238.7 203.1 238.25 203.7 238 204.35 237.9 205.1 237.95 205.6 238 205.85 238.25 206.5 238.7 207.1 239.3 207.55 240 207.85 240.75 207.95 241.45 207.85 242.15 207.55 242.75 207.1 243.2 206.5 243.45 205.85 243.5 205.6 243.55 205.1 Z
M 242.75 211.05
L 242.15 210.6 241.45 210.3 240.75 210.2 240 210.3 239.3 210.6 238.7 211.05 238.25 211.65 238 212.3 237.9 213.05 238 213.8 238.25 214.45 238.7 215.05 239.3 215.5 240 215.8 240.75 215.9 241.45 215.8 242.15 215.5 242.75 215.05 243.2 214.45 243.45 213.8 243.55 213.05 243.45 212.3 243.2 211.65 242.75 211.05 Z
M 243.2 275.1
L 243.45 274.45 243.55 273.7 243.45 272.95 243.2 272.3 242.75 271.7 242.15 271.25 241.45 270.95 240.75 270.85 240 270.95 239.3 271.25 238.7 271.7 238.25 272.3 238 272.95 237.9 273.7 238 274.45 238.25 275.1 238.4 275.25 238.7 275.7 239.3 276.15 240 276.45 240.75 276.55 241.45 276.45 242.15 276.15 242.75 275.7 243.2 275.1 Z
M 243.5 281.05
L 243.2 280.2 242.75 279.65 242.15 279.2 241.45 278.9 240.75 278.8 240 278.9 239.3 279.2 238.7 279.65 238.25 280.2 237.95 281.05 237.9 281.65 238 282.4 238.25 283.05 238.7 283.65 239.3 284.1 240 284.4 240.75 284.5 241.45 284.4 242.15 284.1 242.75 283.65 243.2 283.05 243.45 282.4 243.55 281.65 243.5 281.05 Z
M 241.15 286.8
L 241 286.8 240.75 286.75 240 286.85 239.9 286.85 239.3 287.1 238.7 287.55 238.25 288.15 238 288.85 237.9 289.6 238 290.3 238.25 291 238.7 291.6 239.3 292.05 240 292.3 240.75 292.4 241.45 292.3 242.15 292.05 242.75 291.6 243.2 291 243.45 290.3 243.55 289.75 243.55 289.6 243.45 288.85 243.2 288.15 242.75 287.55 242.15 287.1 241.55 286.85 241.45 286.85 241.15 286.8 Z
M 243.55 350.25
L 243.45 349.5 243.2 348.8 242.75 348.25 242.15 347.8 241.45 347.5 240.75 347.4 240 347.5 239.3 347.8 238.7 348.25 238.25 348.8 238 349.5 237.9 350.25 237.95 350.75 238 350.95 238 351 238.25 351.65 238.7 352.25 239.3 352.7 240 353 241 353.05 241.45 353 242.15 352.7 242.75 352.25 243.2 351.65 243.45 350.95 243.5 350.75 243.55 350.25 Z
M 242.75 356.15
L 242.15 355.7 241.45 355.45 240.75 355.35 240 355.45 239.3 355.7 238.7 356.15 238.45 356.55 238.25 356.75 238 357.45 237.9 358.2 238 358.9 238.25 359.6 238.7 360.2 239.3 360.65 240 360.9 240.75 361 241.45 360.9 242.15 360.65 242.75 360.2 243.2 359.6 243.45 358.9 243.55 358.2 243.45 357.45 243.2 356.75 243 356.55 242.75 356.15 Z
M 243.2 364.7
L 242.75 364.1 242.15 363.65 241.45 363.4 241 363.3 240.75 363.3 240 363.4 239.3 363.65 238.7 364.1 238.25 364.7 238 365.4 237.9 366.1 238 366.85 238.25 367.55 238.7 368.1 238.75 368.15 239.3 368.55 240 368.85 240.75 368.95 241.45 368.85 242.15 368.55 242.7 368.15 242.75 368.1 243.2 367.55 243.45 366.85 243.55 366.1 243.45 365.4 243.2 364.7 Z
M 335.2 399.7
L 321 399.7 321 2.85 335.2 2.85 335.2 399.7 Z"/>
</defs>

<g transform="matrix( 1, 0, 0, 0.3146209716796875, 316,413.95) ">
<use xlink:href="#Layer0_0_1_STROKES"/>
</g>
</svg>
