<?xml version="1.0" encoding="UTF-8"?>
<svg id="Layer_3" data-name="Layer 3" xmlns="http://www.w3.org/2000/svg" viewBox="0 0 1024 1024">
  <defs>
    <style>
      .cls-1 {
        fill: #231f20;
        stroke-width: 0px;
      }
    </style>
  </defs>
  <path class="cls-1" d="m493.08,356.65c5.15-11.47,9.69-20.16,13.62-26.05,3.93-5.9,7.62-9.45,11.07-10.68,3.45-1.22,5.79-1.83,7.01-1.83s1.83.16,1.83.48-.69.82-2.07,1.51c-1.38.69-3.74,3.48-7.09,8.37-3.35,4.89-7.57,12.38-12.67,22.47-5.1,10.09-9.56,20.77-13.39,32.03,6.48,0,10.6-.32,12.35-.96s2.81-.74,3.19-.32c.37.43-.13,1.12-1.51,2.07-3.51,2.45-8.66,3.88-15.46,4.3-.11.21-.96,2.76-2.55,7.65-5.31,16.47-7.97,27.99-7.97,34.58,0,3.72.66,6.32,1.99,7.81,1.33,1.49,2.73,2.23,4.22,2.23s3.13-.64,4.94-1.91c6.06-4.46,12.69-14.08,19.92-28.84.85-1.81,1.67-2.55,2.47-2.23.8.32.77,1.43-.08,3.35-3.93,8.39-7.2,14.56-9.8,18.48-2.6,3.93-5.55,7.54-8.84,10.84-4.36,4.14-8.71,6.21-13.07,6.21-4.89,0-8.29-2.02-10.2-6.06-.96-1.91-1.43-3.67-1.43-5.26s.02-3.27.08-5.02c.05-1.75.24-4.04.56-6.85.32-2.81,1.09-6.32,2.31-10.52,1.22-4.2,2.18-7.38,2.87-9.56.69-2.18,1.73-5.12,3.11-8.84,1.38-3.72,2.12-5.74,2.23-6.06-4.57,0-22.58-.69-54.02-2.07-6.48,19.34-16.68,36.65-30.6,51.95-6.8,7.54-14.72,13.86-23.74,18.96-12.11,6.69-24.86,10.04-38.25,10.04-5.63,0-11.9-.82-18.8-2.47-6.91-1.65-13.44-4.78-19.6-9.4-6.16-4.62-10.54-10.86-13.15-18.72-2.6-7.86-2.68-16.57-.24-26.13,1.27-4.89,4.12-9.45,8.53-13.7,4.41-4.25,8.05-6.43,10.92-6.53,1.06,0,1.7.13,1.91.4.21.27.13.58-.24.96s-.82.67-1.35.88c-3.19,1.38-6.48,4.41-9.88,9.08-4.46,6.16-6.69,13.33-6.69,21.51,0,12.75,6.16,22.25,18.48,28.52,7.44,3.72,16.15,5.58,26.13,5.58,4.35,0,8.45-.43,12.27-1.27,36.01-8.07,61.35-31.39,76.01-69.96-2.76,0-5.45.61-8.05,1.83-2.6,1.22-4.3,1.83-5.1,1.83s-1.25-.32-1.35-.96c0-1.81,1.27-3.53,3.82-5.18,2.55-1.65,4.78-2.57,6.69-2.79h6.21c6.8-17,14.55-34.21,23.27-51.63-2.76.32-6.69.69-11.79,1.12-5.1.43-9.24.8-12.43,1.12s-7.12.85-11.79,1.59c-4.68.74-8.55,1.62-11.63,2.63-3.08,1.01-6.51,2.42-10.28,4.22-3.77,1.81-6.93,3.88-9.48,6.21-6.06,5.74-10.36,12.75-12.91,21.04-1.06,3.4-1.59,7.01-1.59,10.84s1.38,7.54,4.14,11.15c2.76,3.61,6.43,5.42,11,5.42,9.03,0,15.46-5.2,19.28-15.62,1.81-4.89,2.71-8.31,2.71-10.28s-.35-3.45-1.04-4.46c-.69-1.01-.51-1.62.56-1.83.74-.1,1.38.32,1.91,1.27,1.27,2.76,1.91,5.74,1.91,8.92s-1.06,6.64-3.19,10.36c-3.61,6.59-8.5,11-14.66,13.23-2.98,1.06-5.95,1.59-8.92,1.59s-5.95-.64-8.92-1.91c-5.63-2.44-9.78-6.59-12.43-12.43-1.7-3.51-2.55-6.85-2.55-10.04s.5-6.83,1.51-10.92c1.01-4.09,3-8.26,5.98-12.51,2.97-4.25,6.69-7.67,11.15-10.28,4.46-2.6,8.92-4.75,13.39-6.45,4.46-1.7,9.75-2.97,15.86-3.82,6.11-.85,11.42-1.49,15.94-1.91,4.51-.42,9.96-.8,16.33-1.12,6.37-.32,11.1-.64,14.18-.96,1.17-2.02,2.95-4.49,5.34-7.41,2.39-2.92,4.43-4.62,6.13-5.1,1.7-.48,3.03-.72,3.98-.72,3.93,0,5.9,1.67,5.9,5.02s-2.18,6.14-6.53,8.37c-4.36,2.23-8.45,3.35-12.27,3.35-2.87,5.53-6.93,15.38-12.19,29.56s-8.05,21.65-8.37,22.39c7.97,0,18.25.45,30.83,1.35,12.59.9,20.32,1.35,23.19,1.35,2.12-6.16,5.76-14.98,10.92-26.45Zm-33.54-40c-1.27,0-3.93,2.6-7.97,7.81,6.9-1.06,10.3-2.92,10.2-5.58-.11-1.17-.69-1.86-1.75-2.07-.11-.1-.27-.16-.48-.16Z"/>
  <path class="cls-1" d="m551.17,409.47c-3.51,6.75-5.61,11.79-6.29,15.14-.69,3.35-1.04,6.06-1.04,8.13s.8,3.11,2.39,3.11c2.02,0,4.51-1.86,7.49-5.58,4.35-5.42,8.66-12.48,12.91-21.19.42-.96.9-1.49,1.43-1.59.85-.32,1.27,0,1.27.96,0,.53-.16,1.17-.48,1.91-9.78,19.76-18.01,29.64-24.7,29.64-3.08,0-5.58-1.49-7.49-4.46-.96-1.59-1.43-3.72-1.43-6.37s.53-5.9,1.59-9.72c-8.5,13.7-15.83,20.56-21.99,20.56-1.7,0-3.24-.53-4.62-1.59-3.19-2.23-4.78-6.06-4.78-11.47,0-10.41,4.51-20.98,13.54-31.71,5.1-5.95,11.37-9.83,18.8-11.63,2.02-.53,3.93-.8,5.74-.8,4.89,0,9.03,1.7,12.43,5.1,1.06,1.17,1.38,2.29.96,3.35-.43,1.06-1.33,1.49-2.71,1.27-1.17-3.82-3.72-5.74-7.65-5.74-4.57,0-10.2,3.61-16.89,10.84-3.82,4.25-7.38,9.24-10.68,14.98-4.14,6.91-6.21,12.43-6.21,16.57s1.33,6.21,3.98,6.21c6.37,0,14.71-9.77,25.02-29.32,2.02-3.93,3.72-6.61,5.1-8.05,1.38-1.43,3.13-2.15,5.26-2.15.42,0,1.51.16,3.27.48,1.75.32,3.05.37,3.9.16-1.91,1.91-4.62,6.24-8.13,12.99Z"/>
  <path class="cls-1" d="m614.43,396.33c0,4.68-1.22,9.83-3.67,15.46-2.45,5.63-5.82,11.05-10.12,16.25-4.3,5.21-9.54,8.76-15.7,10.68-2.34.64-5.02.96-8.05.96s-6.35-.96-9.96-2.87l-15.14,37.77c-1.59,3.4-3.08,5.63-4.46,6.69-1.38,1.06-2.71,1.59-3.98,1.59h-2.31c-.26,0-1.22-.16-2.87-.48-1.65-.32-2.89-.43-3.75-.32,2.34-2.23,8.26-12.83,17.77-31.79,9.51-18.96,14.9-31.74,16.17-38.32-1.17,1.7-2.29,2.6-3.35,2.71-.64,0-.64-.61,0-1.83.64-1.22,1.7-3.59,3.19-7.09,1.91-4.57,2.87-8.79,2.87-12.67s-.74-6.14-2.23-6.77c6.37-1.06,10.09-1.57,11.15-1.51,1.06.06,1.73.51,1.99,1.35.26.85.4,1.81.4,2.87,0,6.48-1.49,13.7-4.46,21.67l3.19-5.1c3.82-6.16,6.61-10.14,8.37-11.95,1.75-1.81,3.64-3.67,5.66-5.58,3.08-2.97,6.06-4.46,8.92-4.46.85,0,1.65.11,2.39.32,5.31,1.38,7.97,5.53,7.97,12.43Zm-7.65-1.59c0-1.7-.35-3.27-1.04-4.7-.69-1.43-1.78-2.15-3.27-2.15-3.72,0-8.05,3.45-12.99,10.36-4.94,6.91-12.03,18.96-21.27,36.17,1.38,1.38,3.29,2.07,5.74,2.07s5.9-1.86,10.36-5.58c7.12-5.95,13.07-13.33,17.85-22.15,3.08-5.74,4.62-10.41,4.62-14.02Z"/>
  <path class="cls-1" d="m667.97,396.33c0,4.68-1.22,9.83-3.67,15.46-2.45,5.63-5.82,11.05-10.12,16.25-4.3,5.21-9.54,8.76-15.7,10.68-2.34.64-5.02.96-8.05.96s-6.35-.96-9.96-2.87l-15.14,37.77c-1.59,3.4-3.08,5.63-4.46,6.69-1.38,1.06-2.71,1.59-3.98,1.59h-2.31c-.26,0-1.22-.16-2.87-.48-1.65-.32-2.89-.43-3.75-.32,2.34-2.23,8.26-12.83,17.77-31.79,9.51-18.96,14.9-31.74,16.17-38.32-1.17,1.7-2.29,2.6-3.35,2.71-.64,0-.64-.61,0-1.83.64-1.22,1.7-3.59,3.19-7.09,1.91-4.57,2.87-8.79,2.87-12.67s-.74-6.14-2.23-6.77c6.37-1.06,10.09-1.57,11.15-1.51,1.06.06,1.73.51,1.99,1.35.26.85.4,1.81.4,2.87,0,6.48-1.49,13.7-4.46,21.67l3.19-5.1c3.82-6.16,6.61-10.14,8.37-11.95,1.75-1.81,3.64-3.67,5.66-5.58,3.08-2.97,6.06-4.46,8.92-4.46.85,0,1.65.11,2.39.32,5.31,1.38,7.97,5.53,7.97,12.43Zm-7.65-1.59c0-1.7-.35-3.27-1.04-4.7-.69-1.43-1.78-2.15-3.27-2.15-3.72,0-8.05,3.45-12.99,10.36-4.94,6.91-12.03,18.96-21.27,36.17,1.38,1.38,3.29,2.07,5.74,2.07s5.9-1.86,10.36-5.58c7.12-5.95,13.07-13.33,17.85-22.15,3.08-5.74,4.62-10.41,4.62-14.02Z"/>
  <path class="cls-1" d="m651.56,490.03c-4.67,0-8.29-.98-10.84-2.95-2.55-1.97-3.82-4.33-3.82-7.09s.8-5.9,2.39-9.4c2.76-5.42,7.76-9.78,14.98-13.07,5.42-2.55,12.59-4.92,21.51-7.09,8.92-2.18,14.66-3.64,17.21-4.38,3.82-6.69,8.39-18.64,13.7-35.85-6.16,10.84-11.31,18.43-15.46,22.79-4.14,4.36-8.34,6.53-12.59,6.53-5.74,0-9.08-2.39-10.04-7.17-.43-.74-.53-1.86-.32-3.35.21-1.49.34-2.55.4-3.19.05-.64.4-1.67,1.04-3.11.64-1.43,1.06-2.47,1.27-3.11,1.17-2.44,2.18-4.35,3.03-5.74-1.7,0-2.18-.85-1.43-2.55l2.87-5.58c3.61-6.9,6.59-12.75,8.92-17.53,1.06-2.23,3.13-3.35,6.21-3.35h9.72c-.21.21-.74.64-1.59,1.27-1.91,1.27-3.35,2.76-4.3,4.46-3.83,6.59-8.61,15.99-14.34,28.21-2.34,4.99-3.51,8.66-3.51,11s.4,3.98,1.2,4.94,1.88,1.43,3.27,1.43c2.02,0,4.83-2.12,8.45-6.37,7.54-8.82,15.88-22.68,25.02-41.59,1.17-2.23,3.24-3.35,6.21-3.35h8.61c-2.76,1.91-4.94,4.33-6.53,7.25-1.59,2.92-3.32,6.88-5.18,11.87-1.86,4.99-4.2,11.63-7.01,19.92-2.82,8.29-4.97,14.5-6.45,18.64,9.98-2.97,17.63-8.23,22.95-15.78,2.34-3.29,5.68-9.14,10.04-17.53.74-1.49,1.41-2.07,1.99-1.75.58.32.88.74.88,1.27s-.88,2.58-2.63,6.14c-1.75,3.56-3.53,6.85-5.34,9.88-1.81,3.03-4.14,6.14-7.01,9.32-2.87,3.19-6.06,5.71-9.56,7.57-3.51,1.86-8.18,3.85-14.02,5.98-8.18,14.87-16.41,25.82-24.7,32.83-7.76,6.37-16.15,9.56-25.18,9.56Zm-9.24-15.78c-1.17,2.34-1.75,4.49-1.75,6.45s.74,3.48,2.23,4.54c1.49,1.06,3.35,1.59,5.58,1.59,6.16,0,12.75-3.16,19.76-9.48,7.01-6.32,13.17-13.09,18.49-20.32l3.51-5.9c-17.53,4.57-28.58,7.86-33.15,9.88-6.8,2.97-11.68,7.38-14.66,13.23Z"/>
  <path class="cls-1" d="m393.65,600.3c0,6.05-2.18,11.69-6.53,16.89-6.16,7.44-14.4,12.8-24.7,16.09-7.65,2.44-15.09,3.67-22.31,3.67-2.66,0-5.26-.16-7.81-.48-16.68-2.13-30.81-5.79-42.39-11-10.52,7.75-21.62,11.63-33.31,11.63-13.81,0-22.36-3.82-25.66-11.47-.74-1.8-1.12-3.93-1.12-6.37s1.22-5.04,3.67-7.81c3.82-4.25,9.14-6.37,15.94-6.37,4.46,0,8.5.64,12.11,1.91,3.61,1.28,8.07,3.35,13.39,6.21,5.31,2.87,9.24,4.94,11.79,6.21,4.67-4.57,9.51-10.92,14.5-19.04,4.99-8.13,9.38-16.09,13.15-23.9,3.77-7.81,8.58-16.49,14.42-26.05,5.84-9.56,11.79-17.69,17.85-24.38l9.08-10.36c-8.39-1.49-17.64-2.23-27.73-2.23s-21.19,1.33-33.31,3.98c-16.57,3.51-29.32,10.62-38.25,21.35-5.42,6.48-8.13,12.64-8.13,18.49,0,7.76,3.77,12.8,11.31,15.14,2.65.74,4.99,1.12,7.01,1.12s4.35-.37,7.01-1.12c2.65-.74,5.23-2.31,7.73-4.7,2.49-2.39,4.3-4.7,5.42-6.93,1.12-2.23,1.67-3.9,1.67-5.02s.53-1.67,1.59-1.67c1.06.11,1.65.85,1.75,2.23v.16c-1.17,7.76-5.31,13.65-12.43,17.69-4.36,2.34-8.71,3.51-13.07,3.51l-8.29-1.43c-11.26-3.93-16.89-11.26-16.89-21.99,0-7.33,3.24-14.55,9.72-21.67,10.41-11.68,25.71-18.96,45.89-21.83,9.77-1.38,19.94-2.07,30.52-2.07s21.33,1.17,32.27,3.51c2.97-2.55,5.58-4.25,7.81-5.1,2.23-.85,3.53-1.27,3.9-1.27s.61.05.72.16c.64,0,.77.35.4,1.04-.37.69-1.54,1.67-3.51,2.95-1.97,1.27-3.16,2.45-3.59,3.51,14.45,3.72,24.86,9.03,31.23,15.94,3.4,3.82,5.1,7.73,5.1,11.71s-1.17,8-3.51,12.03c-3.08,5.31-8.07,9.32-14.98,12.03-6.91,2.71-13.86,4.22-20.88,4.54,6.8,2.13,13.12,5.1,18.96,8.92,8.29,5.42,12.43,12.64,12.43,21.67Zm-110.43,22.15c-12.43-5.95-20.29-9.51-23.58-10.68-3.29-1.17-6.56-1.75-9.8-1.75s-5.82,1.14-7.73,3.43c-1.91,2.29-2.87,4.36-2.87,6.21s.42,3.64,1.27,5.34c2.34,4.78,7.22,7.17,14.66,7.17,10.09,0,19.44-3.24,28.05-9.72Zm54.66,10.04c11.9,0,21.99-3.4,30.28-10.2,9.03-7.22,13.55-15.03,13.55-23.42s-4.62-15.3-13.86-19.76c-3.4-1.59-7.57-3.16-12.51-4.7-4.94-1.54-8.92-2.84-11.95-3.9-3.03-1.06-4.76-2.07-5.18-3.03,0-2.02,1.54-3.08,4.62-3.19,2.02,0,5.1.16,9.24.48,4.14.32,7.7.45,10.68.4,2.97-.05,6.56-1.12,10.76-3.19,4.2-2.07,7.78-4.75,10.76-8.05,4.78-5.31,7.17-10.3,7.17-14.98,0-9.98-9.35-17.16-28.05-21.51-5.63,7.76-15.72,24.14-30.28,49.16-14.56,25.02-25.76,41.78-33.62,50.28l-6.06,5.74c12,4.99,24.91,8.18,38.72,9.56,2.02.21,3.93.32,5.74.32Z"/>
  <path class="cls-1" d="m409.42,627.39c2.02,0,4.14-1.01,6.37-3.03,3.93-3.93,8.92-11.95,14.98-24.06.74-1.59,1.49-2.07,2.23-1.43.21.21.32.56.32,1.04s-.43,1.65-1.27,3.51c-.85,1.86-1.62,3.53-2.31,5.02-.69,1.49-2.02,3.9-3.98,7.25-1.97,3.35-3.74,5.92-5.34,7.73-4.36,4.99-8.47,7.49-12.35,7.49s-6.67-1.17-8.37-3.51c-1.7-2.34-2.55-4.94-2.55-7.81s.69-6,2.07-9.4l10.2-25.98c.21-.64.32-1.49.32-2.55s-.64-2.44-1.91-4.14l8.76-.16c2.44,0,3.88.45,4.3,1.35.42.9.1,2.31-.96,4.22l-12.75,29.8c-1.81,3.93-2.71,7.28-2.71,10.04,0,3.08,1.65,4.62,4.94,4.62Zm15.62-58.48c-1.49,1.28-3.13,1.91-4.94,1.91s-3.24-.64-4.3-1.91c-1.06-1.27-1.49-2.81-1.27-4.62.32-1.81,1.22-3.35,2.71-4.62,1.49-1.28,3.13-1.91,4.94-1.91s3.27.64,4.38,1.91c1.12,1.27,1.51,2.82,1.2,4.62-.32,1.81-1.22,3.35-2.71,4.62Z"/>
  <path class="cls-1" d="m452.29,567c0,4.78-3.03,9.3-9.08,13.54,2.12.11,4.96.16,8.53.16s8.05-.26,13.47-.8c.21.32.32,1.17.32,2.55s-.64,3.43-1.91,6.14-2.42,5.05-3.43,7.01c-1.01,1.97-1.97,3.82-2.87,5.58-.9,1.75-1.91,3.9-3.03,6.45-1.12,2.55-2.05,4.89-2.79,7.01-2.66,8.07-2.23,12.11,1.27,12.11,4.46,0,11.05-8.87,19.76-26.61.74-1.38,1.35-1.91,1.83-1.59.48.32.72.72.72,1.19s-.69,2.13-2.07,4.94c-1.38,2.82-2.87,5.71-4.46,8.68-1.59,2.98-4.09,6.43-7.49,10.36-4.04,4.89-7.92,7.33-11.63,7.33-4.14,0-7.01-2.5-8.6-7.49-.32-.96-.48-2.39-.48-4.3s.61-4.46,1.83-7.65c1.22-3.19,3.16-7.06,5.82-11.63,2.65-4.57,4.14-7.25,4.46-8.05s.48-1.57.48-2.31c0-3.29-4.25-5.04-12.75-5.26l-1.91,5.1c-6.69,17.53-13.12,29.27-19.28,35.22-1.06.96-1.59.64-1.59-.96,0-.32.11-.69.32-1.12,5.95-7.86,11.1-17.16,15.46-27.89,4.35-10.73,7.38-20.93,9.08-30.6.64-3.29,2.12-4.94,4.46-4.94s4.04,1.49,5.1,4.46c.32.96.48,2.07.48,3.35Z"/>
  <path class="cls-1" d="m468.38,618.15c0-8.82,4.25-23.58,12.75-44.3h-8.29c-.53,0-.88-.29-1.04-.88-.16-.58-.11-1.17.16-1.75.26-.58.66-.88,1.19-.88h9.56c3.82-8.39,7.38-15.4,10.68-21.04,3.29-5.63,6.32-9.43,9.08-11.39,2.76-1.96,4.75-2.95,5.98-2.95s2.1.11,2.63.32c2.44,1.17,3.67,3.59,3.67,7.25s-1.22,8.1-3.67,13.31c-2.45,5.21-4.84,10.04-7.17,14.5h7.65c.53,0,.88.29,1.04.88.16.58.1,1.17-.16,1.75-.27.58-.67.88-1.2.88h-9.24c-5.84,9.88-12.91,18.64-21.19,26.29l-3.67,16.25c-.32,1.38-.48,2.74-.48,4.06s.37,2.68,1.12,4.06c.74,1.38,1.91,2.07,3.51,2.07,1.81,0,3.82-.64,6.06-1.91,5.1-3.82,10.73-11.84,16.89-24.06.42-.96.93-1.54,1.51-1.75.58-.21.93-.08,1.04.4.1.48-.05,1.25-.48,2.31-3.51,7.33-6.27,12.54-8.29,15.62-5.74,9.24-11.85,13.86-18.33,13.86-3.29,0-6-1.22-8.13-3.67-2.13-2.44-3.19-5.52-3.19-9.24Zm29.96-44.3h-7.49c-1.27,2.98-4.14,10.04-8.6,21.19,5.74-5.95,11.1-13.01,16.09-21.19Zm2.07-3.51c7.01-12.53,10.52-21.25,10.52-26.13,0-2.12-.37-3.19-1.12-3.19-1.17,0-2.95,1.7-5.34,5.1-2.39,3.4-6.4,11.47-12.03,24.22h7.97Z"/>
  <path class="cls-1" d="m532.6,623.73c0,2.98,1.06,4.46,3.19,4.46,4.99,0,12.06-9.35,21.19-28.05.74-1.49,1.41-2.07,1.99-1.75.58.32.88.75.88,1.28s-.61,2.05-1.83,4.54c-1.22,2.5-2.44,4.89-3.67,7.17-1.22,2.29-3,5.29-5.34,9-4.89,7.44-10.09,11.16-15.62,11.16-3.61,0-6.48-1.49-8.61-4.46-.96-1.38-1.43-3.27-1.43-5.66s.53-5.28,1.59-8.68c1.06-3.4,3.98-8.92,8.76-16.57,1.17-1.91,1.75-3.43,1.75-4.54s-.9-1.67-2.71-1.67-5.26,2.39-10.36,7.17c-7.65,7.01-15.09,17.53-22.31,31.55-.74,1.59-2.71,2.39-5.9,2.39-2.87.21-4.67.53-5.42.96,20.18-41.96,34.79-71.23,43.82-87.8,2.02-3.72,3.8-6.32,5.34-7.81,1.54-1.49,3.37-2.23,5.5-2.23.53,0,1.65.13,3.35.4,1.7.27,2.97.35,3.82.24-3.19,3.29-8.9,12.4-17.13,27.33-8.23,14.93-16.12,30.09-23.66,45.5,4.99-6.27,9.48-11.16,13.47-14.66,3.98-3.51,8.84-6.82,14.58-9.96,5.74-3.13,9.93-4.7,12.59-4.7.64,0,1.22.11,1.75.32-13.07,22.95-19.6,37.98-19.6,45.1Z"/>
  <path class="cls-1" d="m590.76,621.65c0,3.4,1.38,5.1,4.14,5.1,4.99,0,11.63-8.34,19.92-25.02.32-.64.61-1.27.88-1.91.26-.64.69-1.06,1.27-1.27.58-.21.98-.08,1.2.4.21.48.1,1.25-.32,2.31-8.5,19.76-17.11,29.64-25.82,29.64-2.87,0-5.15-1.27-6.85-3.82-1.7-2.55-2.55-5.07-2.55-7.57s.26-4.81.8-6.93c-6.16,10.2-11.47,15.99-15.94,17.37-1.28.53-2.52.8-3.75.8s-2.42-.16-3.58-.48c-5.21-1.38-7.81-5.52-7.81-12.43,0-4.67,1.2-9.85,3.58-15.54,2.39-5.68,5.76-11.13,10.12-16.33,4.36-5.2,9.61-8.71,15.78-10.52,2.23-.74,4.86-1.12,7.89-1.12s6.4.96,10.12,2.87c7.22-13.6,13.39-26.19,18.49-37.77,1.49-3.51,2.95-5.76,4.38-6.77,1.43-1.01,2.76-1.51,3.98-1.51h2.23c.26,0,1.27.13,3.03.4,1.75.27,3.11.35,4.06.24-2.45,2.23-8.92,13.07-19.44,32.51-13.39,24.86-21.46,41.43-24.22,49.72-1.06,3.08-1.59,5.63-1.59,7.65Zm7.81-41.91c-1.38-1.38-3.32-2.07-5.82-2.07s-5.98,1.86-10.44,5.58c-7.12,5.95-13.02,13.28-17.69,21.99-3.08,5.74-4.62,10.46-4.62,14.18,0,1.7.34,3.24,1.04,4.62.69,1.38,1.78,2.07,3.27,2.07,3.61,0,8.07-3.72,13.39-11.16,5.31-7.43,12.27-19.17,20.88-35.22Z"/>
  <path class="cls-1" d="m655.94,600.7c-3.51,6.75-5.61,11.79-6.29,15.14-.69,3.35-1.04,6.05-1.04,8.13s.8,3.11,2.39,3.11c2.02,0,4.51-1.86,7.49-5.58,4.35-5.42,8.66-12.48,12.91-21.19.42-.96.9-1.49,1.43-1.59.85-.32,1.27,0,1.27.96,0,.53-.16,1.17-.48,1.91-9.78,19.76-18.01,29.64-24.7,29.64-3.08,0-5.58-1.49-7.49-4.46-.96-1.59-1.43-3.72-1.43-6.37s.53-5.9,1.59-9.72c-8.5,13.71-15.83,20.56-21.99,20.56-1.7,0-3.24-.53-4.62-1.59-3.19-2.23-4.78-6.06-4.78-11.47,0-10.41,4.51-20.98,13.54-31.71,5.1-5.95,11.37-9.83,18.8-11.63,2.02-.53,3.93-.8,5.74-.8,4.89,0,9.03,1.7,12.43,5.1,1.06,1.17,1.38,2.29.96,3.35-.43,1.06-1.33,1.49-2.71,1.28-1.17-3.82-3.72-5.74-7.65-5.74-4.57,0-10.2,3.61-16.89,10.84-3.82,4.25-7.38,9.24-10.68,14.98-4.14,6.91-6.21,12.43-6.21,16.57s1.33,6.21,3.98,6.21c6.37,0,14.71-9.77,25.02-29.32,2.02-3.93,3.72-6.61,5.1-8.05,1.38-1.43,3.13-2.15,5.26-2.15.42,0,1.51.16,3.27.48,1.75.32,3.05.37,3.9.16-1.91,1.91-4.62,6.24-8.13,12.99Z"/>
  <path class="cls-1" d="m649.24,681.25c-4.67,0-8.29-.98-10.84-2.95-2.55-1.97-3.82-4.33-3.82-7.09s.8-5.9,2.39-9.4c2.76-5.42,7.76-9.78,14.98-13.07,5.42-2.55,12.59-4.92,21.51-7.09,8.92-2.18,14.66-3.64,17.21-4.38,3.82-6.69,8.39-18.64,13.7-35.85-6.16,10.84-11.31,18.43-15.46,22.79-4.14,4.36-8.34,6.53-12.59,6.53-5.74,0-9.08-2.39-10.04-7.17-.43-.74-.53-1.86-.32-3.35.21-1.49.34-2.55.4-3.19.05-.64.4-1.67,1.04-3.11.64-1.43,1.06-2.47,1.27-3.11,1.17-2.44,2.18-4.35,3.03-5.74-1.7,0-2.18-.85-1.43-2.55l2.87-5.58c3.61-6.91,6.59-12.75,8.92-17.53,1.06-2.23,3.13-3.35,6.21-3.35h9.72c-.21.21-.74.64-1.59,1.28-1.91,1.27-3.35,2.76-4.3,4.46-3.83,6.59-8.61,15.99-14.34,28.21-2.34,5-3.51,8.66-3.51,11s.4,3.98,1.2,4.94c.8.96,1.88,1.43,3.27,1.43,2.02,0,4.83-2.12,8.45-6.37,7.54-8.82,15.88-22.68,25.02-41.59,1.17-2.23,3.24-3.35,6.21-3.35h8.61c-2.76,1.91-4.94,4.33-6.53,7.25-1.59,2.92-3.32,6.88-5.18,11.87-1.86,4.99-4.2,11.63-7.01,19.92-2.82,8.29-4.97,14.5-6.45,18.64,9.98-2.97,17.63-8.23,22.95-15.78,2.34-3.29,5.68-9.13,10.04-17.53.74-1.49,1.41-2.07,1.99-1.75.58.32.88.74.88,1.27s-.88,2.58-2.63,6.14c-1.75,3.56-3.53,6.85-5.34,9.88-1.81,3.03-4.14,6.13-7.01,9.32-2.87,3.19-6.06,5.71-9.56,7.57-3.51,1.86-8.18,3.85-14.02,5.98-8.18,14.87-16.41,25.82-24.7,32.83-7.76,6.37-16.15,9.56-25.18,9.56Zm-9.24-15.78c-1.17,2.34-1.75,4.49-1.75,6.45s.74,3.48,2.23,4.54c1.49,1.06,3.35,1.59,5.58,1.59,6.16,0,12.75-3.16,19.76-9.48,7.01-6.32,13.17-13.09,18.49-20.32l3.51-5.9c-17.53,4.57-28.58,7.86-33.15,9.88-6.8,2.97-11.68,7.38-14.66,13.23Z"/>
  <path class="cls-1" d="m755.37,631.21c-1.49,1.28-3.13,1.91-4.94,1.91s-3.19-.56-4.14-1.67-1.43-2.1-1.43-2.95c0-2.87.85-4.99,2.55-6.37,1.7-1.38,3.45-2.07,5.26-2.07s3.19.56,4.14,1.67,1.43,2.1,1.43,2.95-.11,1.83-.32,2.95c-.21,1.12-1.06,2.31-2.55,3.58Zm50.52-99.12l4.94.16.8.32.32.96c-.96,2.55-9.91,16.31-26.85,41.27-16.95,24.97-25.79,37.98-26.53,39.04l-1.59-.16.16-1.12,40.48-77.13c1.17-2.23,3.93-3.35,8.29-3.35Z"/>
</svg>